<svg width="343" height="543" viewBox="0 0 343 543" fill="none" xmlns="http://www.w3.org/2000/svg">
<path d="M-73.3806 -100.115C-70.9274 -115.447 -65.4078 -123.42 -56.8218 -124.033C-48.2357 -124.646 -37.1966 -117.9 -23.7042 -103.794C-15.1181 -95.8216 -9.90515 -88.7688 -8.06528 -82.6359C-6.2254 -76.503 -5.61212 -65.1572 -6.2254 -48.5984L-8.06528 -9.96114H16.7729C30.2653 -9.96114 41.9178 -6.2814 51.7304 1.07809C61.5431 8.43753 66.4494 16.4103 66.4494 24.9963C66.4494 33.5824 61.8497 40.9418 52.6504 47.0748C42.2244 52.5944 19.2261 71.6063 -16.3447 104.111C-27.3839 114.537 -34.1301 123.123 -36.5833 129.869C-38.4231 136.002 -39.9563 153.174 -41.1829 181.385C-42.4095 219.409 -41.4896 238.421 -38.4231 238.421C-34.7434 238.421 -10.5185 221.249 34.2517 186.905C66.756 162.986 86.6879 146.734 94.0474 138.148C101.407 129.562 108.153 116.376 114.286 98.5911C122.259 72.2196 130.538 53.8209 139.124 43.3951C147.71 32.3558 158.136 27.4495 170.402 28.6761C194.933 31.1292 198.613 47.3814 181.441 77.4326L168.562 99.511H221.918C253.196 99.511 273.435 102.884 282.634 109.63C292.447 115.763 305.632 135.082 322.191 167.586C333.844 189.665 340.283 204.997 341.51 213.583C343.349 221.556 343.656 237.501 342.43 261.419C338.137 307.416 327.711 345.44 311.152 375.491C294.593 405.542 263.929 442.34 219.158 485.883C197.08 507.348 182.361 520.534 175.002 525.44C168.255 529.733 160.283 530.96 151.083 529.12C138.818 527.28 123.792 519.614 106.007 506.122C88.8344 492.63 72.5823 476.071 57.2501 456.445C46.2108 444.18 39.4646 434.367 37.0115 427.008C34.5583 419.648 33.0251 407.689 32.4118 391.13C31.7985 364.759 33.3317 348.507 37.0115 342.374C40.0779 334.401 46.8241 314.776 57.2501 283.498C68.2893 251.607 73.8089 233.821 73.8089 230.142C73.8089 216.649 61.2364 220.636 36.0916 242.101C9.72009 262.339 -9.59851 283.804 -21.8643 306.496C-27.3839 317.535 -31.3703 330.108 -33.8234 344.213C-36.2766 357.706 -38.1165 381.317 -39.343 415.048C-40.5696 450.619 -42.4095 474.231 -44.8626 485.883C-46.7025 497.536 -50.0756 506.122 -54.9819 511.641C-62.9547 520.841 -65.1012 525.44 -61.4214 525.44C-55.2886 525.44 -58.9683 529.12 -72.4607 536.48C-79.8202 540.773 -85.6464 542.919 -89.9394 542.919C-96.6856 543.532 -111.098 536.173 -133.176 520.841C-149.735 510.415 -160.774 504.282 -166.294 502.442C-171.2 500.602 -178.866 501.829 -189.292 506.122C-199.105 509.802 -206.158 511.028 -210.451 509.802C-214.13 508.575 -220.57 503.362 -229.769 494.163C-240.809 483.123 -244.795 473.311 -241.729 464.725C-238.662 456.139 -223.636 437.74 -196.652 409.529C-149.428 359.852 -122.137 329.495 -114.778 318.455C-106.805 307.416 -101.899 293.617 -100.059 277.058C-93.9258 215.116 -93.0058 183.225 -97.2989 181.385C-99.1387 180.772 -103.125 182.612 -109.258 186.905C-115.391 191.811 -124.284 202.237 -135.936 218.183C-147.589 234.128 -173.347 256.82 -213.211 286.258C-253.074 315.695 -274.233 333.481 -276.686 339.614C-279.139 345.747 -284.965 348.813 -294.165 348.813C-302.751 348.813 -313.483 337.161 -326.362 313.856C-335.562 296.07 -340.468 285.338 -341.081 281.658C-341.695 277.365 -338.935 273.072 -332.802 268.779C-321.763 261.419 -311.337 252.22 -301.524 241.181C-291.098 230.142 -285.885 222.476 -285.885 218.183C-285.885 213.276 -284.045 210.21 -280.366 208.983C-273.62 205.917 -252.768 165.746 -217.81 88.4718C-182.853 11.1973 -165.374 -33.5728 -165.374 -45.8385V-64.2373L-149.735 -45.8385C-136.243 -30.5063 -131.03 -10.5744 -134.096 13.9572C-137.163 37.8754 -149.428 72.2196 -170.894 116.99C-172.733 121.283 -171.814 123.123 -168.134 122.509C-162.001 120.056 -151.575 112.39 -136.856 99.511C-109.871 75.5927 -94.5391 59.9538 -90.8593 52.5944C-87.1796 44.6216 -84.1131 23.4631 -81.66 -10.8811C-78.5935 -55.0379 -75.8337 -84.7824 -73.3806 -100.115ZM132.685 94.9113C134.525 90.005 135.138 86.6319 134.525 84.792C133.298 82.9522 130.538 84.7921 126.245 90.3117C123.792 95.218 123.485 98.8977 125.325 101.351C127.778 103.191 130.232 101.044 132.685 94.9113ZM258.716 174.026C252.583 162.986 246.143 156.854 239.397 155.627C233.264 154.4 217.625 156.547 192.48 162.066C174.695 165.746 158.749 171.266 144.644 178.625C130.538 185.372 123.485 191.504 123.485 197.024C123.485 200.09 131.151 202.85 146.484 205.303C169.175 208.983 182.054 216.036 185.121 226.462C188.187 236.888 182.361 251.607 167.642 270.619C151.083 291.471 145.257 306.19 150.163 314.776C151.39 316.002 153.23 316.615 155.683 316.615C160.589 316.615 167.949 322.135 177.761 333.174C188.187 344.213 193.4 352.493 193.4 358.012C193.4 362.919 181.441 373.651 157.523 390.21C134.218 406.769 116.432 416.888 104.167 420.568C94.354 423.634 86.3813 426.701 80.2484 429.767C75.9554 432.834 73.8089 435.287 73.8089 437.127C73.8089 438.967 75.9554 440.807 80.2484 442.646C85.768 446.939 95.8873 451.232 110.606 455.525C125.325 459.818 136.671 461.965 144.644 461.965C152.617 461.965 161.203 459.818 170.402 455.525C177.148 451.232 187.881 442.033 202.6 427.927C217.319 413.822 224.678 405.236 224.678 402.169C224.678 400.329 229.278 391.743 238.477 376.411C256.876 345.747 268.222 310.176 272.515 269.699C276.808 228.608 272.208 196.717 258.716 174.026ZM136.364 246.7C136.364 240.568 134.831 237.194 131.765 236.581C129.311 235.968 124.099 237.808 116.126 242.101C108.766 245.781 101.407 246.7 94.0474 244.861C89.1411 243.634 85.4613 244.554 83.0082 247.62C80.555 250.074 77.7952 256.206 74.7288 266.019C69.2092 284.418 64.3029 310.176 60.0098 343.294C55.7168 376.411 54.7969 395.73 57.2501 401.249C62.7697 417.195 71.0491 416.275 82.0883 398.49C88.8344 388.677 90.061 373.651 85.768 353.413C82.0883 338.694 81.1683 328.575 83.0082 323.055C85.4613 317.535 93.7408 306.496 107.846 289.937C126.858 268.472 136.364 254.06 136.364 246.7Z" fill="#191919" fill-opacity="0.05"/>
</svg>
