<svg width="684" height="706" viewBox="0 0 684 706" fill="none" xmlns="http://www.w3.org/2000/svg">
<path d="M267.655 25.3564C270.107 9.1283 275.624 0.689685 284.206 0.0405692C292.788 -0.608546 303.822 6.53182 317.307 21.4617C325.889 29.9003 331.1 37.3652 332.939 43.8564C334.778 50.3477 335.391 62.3565 334.778 79.8828L332.939 120.778H357.765C371.251 120.778 382.898 124.672 392.706 132.462C402.514 140.251 407.417 148.69 407.417 157.778C407.417 166.865 402.82 174.655 393.625 181.146C383.204 186.988 360.217 207.111 324.663 241.515C313.63 252.55 306.887 261.637 304.435 268.778C302.596 275.269 301.063 293.444 299.837 323.304C298.611 363.55 299.531 383.673 302.596 383.673C306.274 383.673 330.487 365.497 375.235 329.146C407.724 303.83 427.646 286.629 435.002 277.541C442.358 268.453 449.101 254.497 455.231 235.672C463.2 207.76 471.475 188.286 480.057 177.251C488.639 165.567 499.06 160.374 511.32 161.672C535.84 164.269 539.518 181.471 522.354 213.278L509.481 236.646H562.811C594.074 236.646 614.303 240.216 623.498 247.357C633.305 253.848 646.485 274.295 663.036 308.699C674.682 332.067 681.119 348.295 682.345 357.383C684.184 365.822 684.49 382.699 683.264 408.015C678.973 456.699 668.553 496.945 652.002 528.752C635.451 560.559 604.801 599.506 560.053 645.594C537.985 668.313 523.273 682.27 515.917 687.463C509.174 692.006 501.205 693.305 492.011 691.357C479.751 689.41 464.732 681.296 446.956 667.015C429.792 652.734 413.547 635.208 398.223 614.436C387.189 601.454 380.446 591.068 377.994 583.278C375.542 575.489 374.009 562.831 373.396 545.305C372.783 517.392 374.316 500.19 377.994 493.699C381.059 485.261 387.802 464.489 398.223 431.383C409.257 397.629 414.773 378.804 414.773 374.91C414.773 360.629 402.207 364.848 377.074 387.567C350.716 408.988 331.406 431.708 319.147 455.725C313.63 467.41 309.645 480.717 307.193 495.647C304.741 509.927 302.902 534.918 301.676 570.62C300.45 608.269 298.611 633.261 296.159 645.594C294.32 657.927 290.949 667.015 286.045 672.857C278.076 682.594 275.93 687.463 279.608 687.463C285.738 687.463 282.06 691.357 268.575 699.147C261.219 703.691 255.395 705.963 251.104 705.963C244.361 706.612 229.956 698.822 207.888 682.594C191.337 671.559 180.304 665.068 174.787 663.12C169.883 661.173 162.22 662.471 151.799 667.015C141.992 670.91 134.942 672.208 130.651 670.91C126.973 669.612 120.537 664.094 111.342 654.357C100.308 642.673 96.3235 632.287 99.3885 623.199C102.453 614.112 117.472 594.638 144.443 564.778C191.644 512.199 218.922 480.068 226.278 468.383C234.247 456.699 239.151 442.094 240.99 424.567C247.12 359.006 248.039 325.252 243.748 323.304C241.909 322.655 237.925 324.602 231.795 329.146C225.665 334.339 216.777 345.374 205.13 362.252C193.483 379.129 167.737 403.146 127.893 434.304C88.0481 465.462 66.8998 484.287 64.4479 490.778C61.9959 497.269 56.1725 500.515 46.9776 500.515C38.3957 500.515 27.6683 488.182 14.7954 463.515C5.60053 444.69 0.696583 433.331 0.0835891 429.436C-0.529401 424.892 2.22907 420.348 8.359 415.804C19.3929 408.015 29.8138 398.278 39.6216 386.594C50.0425 374.91 55.253 366.795 55.253 362.252C55.253 357.059 57.092 353.813 60.7699 352.515C67.5128 349.269 88.3546 306.751 123.295 224.962C158.236 143.172 175.706 95.7863 175.706 82.8039V63.3301L191.337 82.8039C204.823 99.032 210.034 120.128 206.969 146.093C203.904 171.409 191.644 207.76 170.189 255.146C168.35 259.69 169.27 261.637 172.948 260.988C179.078 258.392 189.498 250.278 204.21 236.646C231.182 211.33 246.507 194.778 250.185 186.988C253.863 178.55 256.928 156.155 259.38 119.804C262.445 73.067 265.203 41.5845 267.655 25.3564ZM473.621 231.778C475.46 226.585 476.073 223.015 475.46 221.067C474.234 219.12 471.475 221.067 467.184 226.909C464.732 232.102 464.426 235.997 466.265 238.594C468.717 240.541 471.169 238.269 473.621 231.778ZM599.591 315.515C593.461 303.83 587.024 297.339 580.282 296.041C574.152 294.743 558.52 297.015 533.388 302.857C515.611 306.752 499.673 312.594 485.574 320.383C471.475 327.523 464.426 334.015 464.426 339.857C464.426 343.102 472.088 346.024 487.413 348.62C510.094 352.515 522.967 359.98 526.032 371.015C529.097 382.05 523.273 397.629 508.561 417.752C492.011 439.822 486.187 455.401 491.091 464.489C492.317 465.787 494.156 466.436 496.608 466.436C501.512 466.436 508.868 472.278 518.676 483.962C529.097 495.647 534.307 504.41 534.307 510.252C534.307 515.445 522.354 526.804 498.447 544.331C475.153 561.857 457.376 572.568 445.117 576.462C435.309 579.708 427.34 582.954 421.21 586.199C416.919 589.445 414.773 592.041 414.773 593.989C414.773 595.936 416.919 597.884 421.21 599.831C426.727 604.375 436.841 608.919 451.553 613.462C466.265 618.006 477.605 620.278 485.574 620.278C493.543 620.278 502.125 618.006 511.32 613.462C518.063 608.919 528.79 599.182 543.502 584.252C558.214 569.322 565.57 560.234 565.57 556.989C565.57 555.041 570.167 545.954 579.362 529.726C597.752 497.269 609.092 459.62 613.383 416.778C617.674 373.287 613.077 339.532 599.591 315.515ZM477.299 392.436C477.299 385.945 475.766 382.374 472.701 381.725C470.249 381.076 465.039 383.024 457.07 387.567C449.714 391.462 442.358 392.436 435.002 390.488C430.098 389.19 426.42 390.164 423.968 393.41C421.516 396.006 418.758 402.497 415.693 412.883C410.176 432.357 405.272 459.62 400.981 494.673C396.69 529.726 395.771 550.173 398.223 556.015C403.74 572.892 412.015 571.919 423.049 553.094C429.792 542.708 431.018 526.804 426.727 505.383C423.049 489.804 422.129 479.094 423.968 473.252C426.42 467.41 434.696 455.725 448.795 438.199C467.797 415.48 477.299 400.225 477.299 392.436Z" fill="#191919" fill-opacity="0.05"/>
</svg>
