<svg width="3341" height="432" viewBox="0 0 3341 432" fill="none" xmlns="http://www.w3.org/2000/svg">
<path d="M-375 352.207C-361.812 353.832 -368.989 334.223 -367.495 327.254C-366.002 320.284 -358.607 313.581 -360.246 305.106C-358.352 303.57 -333.579 305.194 -329.754 307.557C-325.018 310.48 -331.065 317.538 -323.962 316.77V269.521H-309.353L-309.39 254.726H-276.566V290.192C-267.459 292.407 -255.656 287.771 -248.442 288.037C-242.869 288.243 -238.825 292.909 -231.211 293.323C-210.337 294.474 -186.22 286.737 -174.599 302.005C-180.61 282.455 -154.417 276.165 -156.202 298.934L-130.81 299.081L-130.3 283.282L-125.091 278.734L-90.7371 281.333L-87.1306 293.175V157.333L-50.8099 166.31C-57.8773 180.514 -47.4948 181.371 -47.0577 182.877C-45.7097 187.72 -47.677 193.597 -47.0577 198.676H-32.4492V284.286H-17.8408V296.128H-3.26887V247.373C11.631 236.594 33.8533 246.9 51.3761 245.896C45.0373 262.758 61.9407 264.412 65.1101 277.583C68.2795 290.753 67.3324 303.777 73.2705 316.77C87.806 308.472 69.2267 281.333 78.5528 269.284L93.4162 266.833L95.1284 251.802C99.6457 255.612 124.236 256.557 124.236 250.326V194.217C124.236 193.715 129.336 191.648 129.955 188.458C130.575 185.269 126.859 180.692 127.624 177.089C128.207 174.313 141.139 171.862 144.418 166.015C146.932 161.526 143.07 156.978 144.418 154.232C149.118 144.664 172.688 148.769 182.56 151.456C170.211 168.761 191.486 168.082 196.112 175.79C197.387 177.916 200.302 195.989 200.702 200.212C203.544 229.3 198.699 260.898 200.702 290.251C205.803 290.517 211.886 289.366 216.695 290.635C223.726 292.496 219.537 301.857 229.883 299.081C226.531 206.797 243.216 115.428 244.673 23.144C244.856 14.1371 266.203 -4.70365 276.95 1.08442L299.1 278.439L313.744 278.38L313.672 290.251L346.495 296.128V146.997C346.495 145.609 363.435 129.662 366.313 124.671C369.592 119.031 366.349 111.442 373.817 107.189C381.103 112.239 378.444 119.681 382.634 126.561C385.584 131.434 401.14 144.014 401.14 146.997V238.543L406.604 242.913L412.069 238.543V74.6165H470.357V352.207C477.242 351.056 476.987 346.39 477.752 341.96C480.157 327.726 481.905 255.287 498.044 252.275L565.439 268.458L579.683 352.237H590.612V290.192L608.791 293.175L608.863 284.286C641.942 283.312 628.098 310.214 630.721 328.583L645.366 326.899C652.397 331.034 646.569 343.466 649.519 345.976C650.284 346.626 668.937 353.182 670.685 352.178C678.554 347.66 668.062 336.645 667.261 332.835C663.691 315.264 675.785 315.707 678.007 306.375C680.448 296.187 680.12 246.546 678.263 235.383C676.587 225.313 666.787 223.659 666.751 214.918C666.714 202.456 680.558 203.46 681.76 199.532C684.82 189.521 677.862 175.317 679.173 168.141C679.683 165.454 684.82 162.382 685.148 158.662C685.876 150.806 684.966 142.981 685.33 135.125C685.476 131.552 682.634 124.14 688.936 124.849C686.35 140.057 691.304 156.181 691.887 170.622C692.179 177.65 686.787 185.298 688.9 194.305C690.576 201.481 697.607 200.448 700.084 203.667C709.884 216.365 697.898 222.094 696.077 232.489C693.709 246.132 693.891 292.673 696.077 306.612C697.498 315.707 707.006 320.698 706.969 327.136C706.969 328.258 694.911 354.511 707.006 344.47C717.352 335.847 719.611 332.658 736.405 336.172L743.581 189.817H841.942C842.562 240.078 853.6 290.399 845.622 340.425L878.409 334.518C882.78 322.795 866.787 326.693 867.48 316.829C881.177 321.289 884.893 308.59 888.245 307.881C891.997 307.084 926.751 307.084 930.503 307.881C935.64 308.974 934.438 318.985 943.983 316.8L951.341 271.086L965.804 251.861C963.545 259.805 975.203 263.142 976.514 265.918C985.695 285.143 981.979 308.62 987.735 328.612C1012.91 320.846 999.72 323.71 1009.78 329.764C1015.97 333.485 1027.22 336.645 1035.02 337.501L1027.66 341.872L1029.81 349.313L1071.45 349.254L1064.2 337.471L1082.38 337.412L1075.09 328.612C1087.01 328.346 1098.66 325.718 1109.96 322.883C1116.15 321.348 1120.41 315.471 1124.13 315.028C1130.39 314.26 1231.12 314.26 1237.39 315.028C1241.11 315.471 1245.37 321.348 1251.56 322.883C1262.82 325.718 1274.51 328.317 1286.42 328.612L1279.14 337.412L1301 337.471L1290.1 349.225H1333.78L1330.1 337.471C1340.78 335.995 1357.28 332.451 1359.54 322.854L1375.57 328.73C1386.79 322.293 1380.41 318.011 1381.83 314.496C1385 306.553 1412.4 304.899 1416.3 314.496C1417.43 317.243 1409.7 344.707 1421.25 337.442C1416.08 328.878 1425.91 325.541 1435.86 325.63L1433.67 310.775C1449.01 305.696 1462.6 303.068 1463.15 287.239C1463.87 306.493 1483.11 303.127 1490.61 309.299C1496.62 314.201 1490.87 328.051 1508.65 333.101L1501.4 343.378C1506.97 344.057 1525.22 347.719 1527.08 341.458L1526.13 317.449L1468.68 284.404L1615.75 261.636L1690.83 290.251L1694.51 237.125L1719.79 239.931L1723.66 225.313L1734.73 240.049L1763.69 237.155C1762.27 257.797 1775.61 276.313 1764.86 298.52C1763.11 302.093 1757.06 302.093 1755.28 305.696C1750.61 315.205 1751.67 331.624 1763.66 337.56L1763.73 313.965L1767.55 322.558L1785 322.381L1790.76 296.04L1814.69 293.293L1816.55 246.073L1865.7 215.036V116.107C1871.85 116.846 1877.86 112.534 1883.8 114.513C1885.84 115.192 1916.7 136.454 1916.7 138.256V228.325C1939.03 230.806 1929.85 207.299 1931.31 194.394C1932.18 186.568 1935.75 158.337 1938.45 153.464C1940.38 149.979 1946.57 152.401 1948.54 150.984C1952.04 148.444 1950.54 134.299 1958.63 130.873C1964.46 129.751 1966.21 134.86 1967.99 138.019C1977.68 154.97 1989.52 173.25 1989.52 191.382V319.841L2009.74 272.74L2011.12 247.609L2022.56 244.39L2029.59 166.251H2040.49V183.999H2051.38V157.392H2062.27C2063 173.693 2067.66 189.994 2069.52 206.177C2071.82 225.874 2058.56 246.693 2090.98 249.322L2095.57 275.132L2113.31 275.516L2116.88 299.14L2122.42 269.521L2136.55 269.048C2146.1 267.247 2141.51 244.803 2143.26 236.357C2145 227.912 2152.69 219.761 2154.8 210.872C2157.68 198.824 2151.31 179.54 2154.19 164.745C2154.48 163.268 2160.16 164.479 2160.92 159.075C2163.15 143.128 2159.76 122.604 2160.63 105.713C2160.82 102.08 2157.86 94.7566 2164.28 95.4063V155.945L2189.78 160.374V95.4063L2196.7 144.457L2193.49 163.268L2204.6 164.922C2206.1 180.514 2201.62 199.769 2204.6 214.8C2206.13 222.567 2213.57 228.059 2215.1 235.826C2216.77 244.39 2213.31 282.13 2215.35 284.375L2233.53 281.422V240.078H2280.89V310.953C2287.3 311.602 2284.35 304.279 2284.53 300.646C2285.33 284.847 2282.09 265.475 2284.71 250.562C2285.52 245.985 2290.87 242.382 2292 235.796C2297.68 203.047 2280.31 157.569 2307.48 128.747C2309.74 126.355 2317.14 125.528 2319.32 121.984C2321.51 118.44 2314.26 98.7433 2324.53 95.3767C2326.21 103.498 2322.27 115.546 2324.5 122.811C2325.19 125.114 2353.71 139.732 2353.71 158.839V307.97C2371.6 309.653 2361.47 274.984 2364.64 272.533H2379.21V322.736C2390.83 321.17 2384.75 303.481 2386.46 302.034H2408.36V316.829H2419.25V201.629H2441.14C2437.17 225.992 2463.33 225.992 2459.36 201.629H2481.22C2477.25 225.992 2503.4 225.992 2499.43 201.629H2521.29C2519.1 213.353 2523.18 224.486 2539.5 217.487L2542.89 202.899C2575.32 197.052 2561.73 212.024 2561.22 226.612C2560.82 237.598 2559.65 301.828 2565.08 305.017C2573.93 300.174 2591.45 301.946 2599.14 299.199C2603.8 297.516 2599.14 291.846 2603.84 290.133C2605.95 289.366 2625.92 286.796 2628.25 287.151C2630.87 287.535 2630.4 292.85 2633.02 293.264C2636.44 293.825 2694.84 283.282 2697.72 281.628C2701.44 279.473 2697.79 273.98 2702.27 272.415C2704.68 271.588 2724.17 269.048 2726.65 269.403C2729.78 269.846 2727.34 275.899 2734.08 275.516C2737.06 275.338 2789.3 264.648 2792.07 263.674C2796.7 262.079 2792.87 255.818 2800.71 252.334C2815.64 245.66 2821.8 254.165 2828.54 254.106C2830.84 254.106 2869.82 243.652 2872.33 242.441C2888.61 234.438 2865.88 188.813 2891.16 177.975L2892.98 189.758C2906.86 181.253 2894.22 161.821 2912.98 151.367L2914.84 166.133C2928.29 155.768 2916.77 135.805 2938.52 124.819L2943.91 142.508L2947.59 107.101H3027.74V127.802L3054.81 127.831L3056.88 107.101H3107.88V127.802H3137.07L3138.63 109.876L3191.71 107.101V127.802H3213.57V110.054H3297.32V161.733C3297.32 162.619 3301.95 164.007 3300.96 166.162H2943.95V222.271H2947.59V172.069L3306.25 172.275L3310.03 163.209L3341 281.333V426.035C2820.2 428.811 2299.1 422.964 1778.34 424.588C1759.61 424.647 1738.05 424.529 1717.97 424.617C1699.14 424.706 1668.43 433.211 1652.4 423.052C1649.27 431.97 1643.58 429.933 1633.97 426.271L1630.65 431.97L1626.9 422.904C1617.06 422.875 1611.82 420.749 1608.87 429.017C1586.93 414.104 1548.76 430.081 1525.77 426.241C1521.65 425.562 1521.54 419.095 1517.72 417.264C1501 432.384 1456.01 427.009 1430.29 426.094C1421.47 425.769 1412.62 418.475 1413.86 428.988H1406.64L1405.08 423.377C1388.03 426.566 1360.19 428.072 1342.71 426.33C1334.51 425.503 1336.95 419.184 1331.49 417.677C1325.73 416.083 1294.66 416.349 1289.96 418.8C1287.59 420.04 1287.26 424.588 1285.62 425.415C1277.35 429.578 1117.5 425.326 1091.23 425.917C1085.15 426.064 1080.49 426.921 1075.09 429.076L1073.2 420.099L1029.7 417.028L1025.69 426.301C983.181 422.757 932.216 430.287 890.831 426.301C877.899 425.06 875.276 412.421 865.767 414.311C860.631 415.315 864.31 428.958 843.4 428.781L840.084 423.141C833.6 429.756 824.456 429.578 818.153 423.141C815.531 422.343 818.263 432.915 809.119 429.076C810.722 410.62 794.911 407.903 788.645 426.301C774.511 429.372 753.636 423.111 741.942 423.052C739.683 423.052 741.031 431.675 730.758 429.136C727.443 428.309 731.414 421.841 725.366 423.17L723.545 429.047L714.437 423.141C710.722 442.07 704.201 414.104 698.008 414.341L692.47 423.111L679.829 417.205L677.935 426.064C671.268 427.009 675.931 420.749 673.636 417.973C672.58 416.733 663.873 414.075 661.906 414.488C648.244 431.705 613.563 423.347 590.612 429.047L588.718 414.252C579.865 413.307 578.189 423.731 575.348 425.533C574.146 426.301 548.718 424.47 545.257 423.052L541.65 428.752L483.289 422.964L479.428 429.076L470.357 414.281V426.094H-344.035C-346.585 426.094 -353.834 434.569 -353.178 423.2L-360.428 423.141L-364.035 432L-375 414.281V352.266V352.207ZM455.129 112.623L459.428 87.8168L420.885 89.382L426.932 112.652H455.093L455.129 112.623ZM3191.49 325.63V238.513C3191.49 237.48 3181.29 223.925 3178.85 222.183C3162.89 210.754 3125.92 218.048 3125.92 232.607V325.63H3191.49ZM805.33 352.207C805.002 308.797 808.791 264.235 792.616 222.271C776.186 258.004 781.469 300.853 779.611 338.712C789.337 341.517 792.871 340.277 794.037 350.406L805.33 352.207ZM2878.16 257.708L2677.83 298.993C2737.79 290.281 2813.64 282.603 2870.18 264.323C2875.72 262.522 2880.02 266.036 2878.16 257.679V257.708ZM2506.64 302.005C2517.17 249.203 2463.29 249.262 2473.82 302.005H2506.64ZM539.428 340.365L530.539 290.015L512.543 287.594L507.26 292.2L499.355 343.378L539.464 340.395L539.428 340.365ZM1700.45 336.586C1709.96 326.102 1703.91 299.377 1688.21 293.441C1668.5 304.101 1632.73 313.492 1639.58 337.442C1651.27 339.48 1650.21 334.489 1655.93 328.642L1668.68 337.442C1666.5 323.887 1669.48 310.096 1688.94 319.605L1690.61 340.425C1690.94 340.779 1699.79 337.353 1700.45 336.615V336.586ZM1624.97 316.77C1603.04 312.045 1604.46 353.241 1625 344.795V316.77H1624.97ZM1577.64 319.694H1559.39V346.301L1576.01 343.525L1577.61 319.723L1577.64 319.694Z" fill="#F5F5F5"/>
</svg>
