<svg width="3341" height="432" viewBox="0 0 3341 432" fill="none" xmlns="http://www.w3.org/2000/svg">
<path d="M-375 445.375C-361.812 447.728 -368.989 419.314 -367.495 409.215C-366.002 399.116 -358.607 389.402 -360.246 377.121C-358.352 374.895 -333.579 377.249 -329.754 380.672C-325.018 384.909 -331.065 395.136 -323.962 394.024V325.556H-309.353L-309.39 304.116H-276.566V355.51C-267.459 358.72 -255.656 352.001 -248.442 352.386C-242.869 352.686 -238.825 359.447 -231.211 360.046C-210.337 361.715 -186.22 350.504 -174.599 372.627C-180.61 344.299 -154.417 335.184 -156.202 368.177L-130.81 368.391L-130.3 345.497L-125.091 338.907L-90.7371 342.673L-87.1306 359.832V162.987L-50.8099 175.996C-57.8773 196.579 -47.4948 197.82 -47.0577 200.002C-45.7097 207.02 -47.677 215.536 -47.0577 222.896H-32.4492V346.952H-17.8408V364.112H-3.26887V293.461C11.631 277.842 33.8533 292.776 51.3761 291.321C45.0373 315.756 61.9407 318.152 65.1101 337.238C68.2795 356.323 67.3324 375.195 73.2705 394.024C87.806 381.999 69.2267 342.673 78.5528 325.213L93.4162 321.661L95.1284 299.88C99.6457 305.4 124.236 306.77 124.236 297.74V216.435C124.236 215.707 129.336 212.712 129.955 208.09C130.575 203.468 126.859 196.836 127.624 191.615C128.207 187.592 141.139 184.041 144.418 175.568C146.932 169.063 143.07 162.473 144.418 158.493C149.118 144.629 172.688 150.577 182.56 154.471C170.211 179.547 191.486 178.563 196.112 189.732C197.387 192.813 200.302 219.002 200.702 225.121C203.544 267.272 198.699 313.06 200.702 355.596C205.803 355.981 211.886 354.312 216.695 356.152C223.726 358.848 219.537 372.413 229.883 368.391C226.531 234.664 243.216 102.264 244.673 -31.4626C244.856 -44.5143 266.203 -71.8159 276.95 -63.4286L299.1 338.479L313.744 338.393L313.672 355.596L346.495 364.112V148.009C346.495 145.998 363.435 122.89 366.313 115.658C369.592 107.485 366.349 96.4871 373.817 90.325C381.103 97.6425 378.444 108.426 382.634 118.397C385.584 125.458 401.14 143.687 401.14 148.009V280.666L406.604 286.999L412.069 280.666V43.1248H470.357V445.375C477.242 443.706 476.987 436.944 477.752 430.526C480.157 409.9 481.905 304.93 498.044 300.565L565.439 324.015L579.683 445.417H590.612V355.51L608.791 359.832L608.863 346.952C641.942 345.54 628.098 384.524 630.721 411.141L645.366 408.701C652.397 414.692 646.569 432.708 649.519 436.345C650.284 437.287 668.937 446.787 670.685 445.332C678.554 438.785 668.062 422.823 667.261 417.303C663.691 391.841 675.785 392.483 678.007 378.961C680.448 364.197 680.12 292.263 678.263 276.087C676.587 261.495 666.787 259.099 666.751 246.432C666.714 228.374 680.558 229.829 681.76 224.137C684.82 209.631 677.862 189.047 679.173 178.649C679.683 174.755 684.82 170.304 685.148 164.912C685.876 153.53 684.966 142.19 685.33 130.807C685.476 125.629 682.634 114.888 688.936 115.915C686.35 137.953 691.304 161.318 691.887 182.243C692.179 192.428 686.787 203.511 688.9 216.563C690.576 226.962 697.607 225.464 700.084 230.128C709.884 248.529 697.898 256.831 696.077 271.894C693.709 291.664 693.891 359.105 696.077 379.303C697.498 392.483 707.006 399.715 706.969 409.044C706.969 410.67 694.911 448.712 707.006 434.163C717.352 421.668 719.611 417.046 736.405 422.138L743.581 210.058H841.942C842.562 282.891 853.6 355.81 845.622 428.3L878.409 419.742C882.78 402.753 866.787 408.402 867.48 394.109C881.177 400.571 884.893 382.17 888.245 381.143C891.997 379.988 926.751 379.988 930.503 381.143C935.64 382.726 934.438 397.233 943.983 394.066L951.341 327.823L965.804 299.966C963.545 311.477 975.203 316.312 976.514 320.335C985.695 348.193 981.979 382.213 987.735 411.183C1012.91 399.929 999.72 404.08 1009.78 412.852C1015.97 418.244 1027.22 422.823 1035.02 424.064L1027.66 430.397L1029.81 441.181L1071.45 441.095L1064.2 424.021L1082.38 423.936L1075.09 411.183C1087.01 410.798 1098.66 406.99 1109.96 402.882C1116.15 400.656 1120.41 392.141 1124.13 391.499C1130.39 390.386 1231.12 390.386 1237.39 391.499C1241.11 392.141 1245.37 400.656 1251.56 402.882C1262.82 406.99 1274.51 410.755 1286.42 411.183L1279.14 423.936L1301 424.021L1290.1 441.053H1333.78L1330.1 424.021C1340.78 421.882 1357.28 416.746 1359.54 402.839L1375.57 411.355C1386.79 402.026 1380.41 395.821 1381.83 390.729C1385 379.217 1412.4 376.821 1416.3 390.729C1417.43 394.708 1409.7 434.505 1421.25 423.978C1416.08 411.569 1425.91 406.733 1435.86 406.861L1433.67 385.337C1449.01 377.976 1462.6 374.168 1463.15 351.231C1463.87 379.132 1483.11 374.253 1490.61 383.197C1496.62 390.301 1490.87 410.37 1508.65 417.688L1501.4 432.58C1506.97 433.564 1525.22 438.87 1527.08 429.798L1526.13 395.008L1468.68 347.123L1615.75 314.13L1690.83 355.596L1694.51 278.612L1719.79 282.677L1723.66 261.495L1734.73 282.849L1763.69 278.655C1762.27 308.567 1775.61 335.398 1764.86 367.578C1763.11 372.756 1757.06 372.756 1755.28 377.976C1750.61 391.756 1751.67 415.548 1763.66 424.15L1763.73 389.958L1767.55 402.411L1785 402.154L1790.76 363.983L1814.69 360.004L1816.55 291.578L1865.7 246.603V103.248C1871.85 104.318 1877.86 98.0704 1883.8 100.938C1885.84 101.922 1916.7 132.732 1916.7 135.343V265.86C1939.03 269.455 1929.85 235.392 1931.31 216.691C1932.18 205.351 1935.75 164.442 1938.45 157.381C1940.38 152.331 1946.57 155.84 1948.54 153.786C1952.04 150.106 1950.54 129.609 1958.63 124.645C1964.46 123.018 1966.21 130.422 1967.99 135C1977.68 159.563 1989.52 186.052 1989.52 212.326V398.474L2009.74 330.22L2011.12 293.803L2022.56 289.139L2029.59 175.91H2040.49V201.628H2051.38V163.072H2062.27C2063 186.694 2067.66 210.315 2069.52 233.766C2071.82 262.308 2058.56 292.477 2090.98 296.285L2095.57 333.686L2113.31 334.242L2116.88 368.476L2122.42 325.556L2136.55 324.871C2146.1 322.26 2141.51 289.738 2143.26 277.5C2145 265.261 2152.69 253.45 2154.8 240.57C2157.68 223.11 2151.31 195.167 2154.19 173.728C2154.48 171.588 2160.16 173.342 2160.92 165.511C2163.15 142.403 2159.76 112.663 2160.63 88.1853C2160.82 82.9219 2157.86 72.3093 2164.28 73.2507V160.975L2189.78 167.394V73.2507L2196.7 144.329L2193.49 171.588L2204.6 173.984C2206.1 196.579 2201.62 224.48 2204.6 246.261C2206.13 257.515 2213.57 265.475 2215.1 276.729C2216.77 289.139 2213.31 343.828 2215.35 347.08L2233.53 342.801V282.891H2280.89V385.593C2287.3 386.535 2284.35 375.922 2284.53 370.659C2285.33 347.765 2282.09 319.693 2284.71 298.083C2285.52 291.45 2290.87 286.229 2292 276.686C2297.68 229.23 2280.31 163.329 2307.48 121.564C2309.74 118.097 2317.14 116.899 2319.32 111.764C2321.51 106.629 2314.26 78.0863 2324.53 73.208C2326.21 84.9759 2322.27 102.435 2324.5 112.962C2325.19 116.3 2353.71 137.482 2353.71 165.169V381.271C2371.6 383.711 2361.47 333.472 2364.64 329.92H2379.21V402.668C2390.83 400.4 2384.75 374.767 2386.46 372.67H2408.36V394.109H2419.25V227.175H2441.14C2437.17 262.479 2463.33 262.479 2459.36 227.175H2481.22C2477.25 262.479 2503.4 262.479 2499.43 227.175H2521.29C2519.1 244.164 2523.18 260.297 2539.5 250.155L2542.89 229.016C2575.32 220.543 2561.73 242.238 2561.22 263.378C2560.82 279.297 2559.65 372.371 2565.08 376.992C2573.93 369.974 2591.45 372.542 2599.14 368.562C2603.8 366.123 2599.14 357.907 2603.84 355.425C2605.95 354.312 2625.92 350.589 2628.25 351.103C2630.87 351.659 2630.4 359.362 2633.02 359.961C2636.44 360.774 2694.84 345.497 2697.72 343.1C2701.44 339.977 2697.79 332.017 2702.27 329.749C2704.68 328.551 2724.17 324.871 2726.65 325.384C2729.78 326.026 2727.34 334.799 2734.08 334.242C2737.06 333.986 2789.3 318.495 2792.07 317.083C2796.7 314.772 2792.87 305.7 2800.71 300.65C2815.64 290.979 2821.8 303.303 2828.54 303.218C2830.84 303.218 2869.82 288.069 2872.33 286.315C2888.61 274.718 2865.88 208.604 2891.16 192.899L2892.98 209.973C2906.86 197.649 2894.22 169.491 2912.98 154.343L2914.84 175.739C2928.29 160.719 2916.77 131.791 2938.52 115.872L2943.91 141.505L2947.59 90.1966H3027.74V120.194L3054.81 120.237L3056.88 90.1966H3107.88V120.194H3137.07L3138.63 94.2191L3191.71 90.1966V120.194H3213.57V94.4758H3297.32V169.363C3297.32 170.647 3301.95 172.658 3300.96 175.782H2943.95V257.087H2947.59V184.34L3306.25 184.64L3310.03 171.502L3341 342.673V552.356C2820.2 556.378 2299.1 547.905 1778.34 550.259C1759.61 550.345 1738.05 550.174 1717.97 550.302C1699.14 550.43 1668.43 562.755 1652.4 548.034C1649.27 560.957 1643.58 558.005 1633.97 552.698L1630.65 560.957L1626.9 547.82C1617.06 547.777 1611.82 544.696 1608.87 556.678C1586.93 535.068 1548.76 558.219 1525.77 552.655C1521.65 551.671 1521.54 542.3 1517.72 539.647C1501 561.556 1456.01 553.768 1430.29 552.442C1421.47 551.971 1412.62 541.401 1413.86 556.635H1406.64L1405.08 548.505C1388.03 553.126 1360.19 555.309 1342.71 552.784C1334.51 551.586 1336.95 542.428 1331.49 540.246C1325.73 537.935 1294.66 538.32 1289.96 541.872C1287.59 543.669 1287.26 550.259 1285.62 551.457C1277.35 557.491 1117.5 551.329 1091.23 552.185C1085.15 552.399 1080.49 553.64 1075.09 556.764L1073.2 543.755L1029.7 539.304L1025.69 552.741C983.181 547.606 932.216 558.518 890.831 552.741C877.899 550.944 875.276 532.629 865.767 535.367C860.631 536.822 864.31 556.592 843.4 556.336L840.084 548.162C833.6 557.748 824.456 557.491 818.153 548.162C815.531 547.007 818.263 562.327 809.119 556.764C810.722 530.018 794.911 526.081 788.645 552.741C774.511 557.191 753.636 548.119 741.942 548.034C739.683 548.034 741.031 560.529 730.758 556.849C727.443 555.651 731.414 546.279 725.366 548.205L723.545 556.721L714.437 548.162C710.722 575.592 704.201 535.068 698.008 535.41L692.47 548.119L679.829 539.561L677.935 552.399C671.268 553.768 675.931 544.696 673.636 540.674C672.58 538.876 663.873 535.025 661.906 535.624C648.244 560.572 613.563 548.462 590.612 556.721L588.718 535.282C579.865 533.912 578.189 549.018 575.348 551.628C574.146 552.741 548.718 550.088 545.257 548.034L541.65 556.293L483.289 547.906L479.428 556.764L470.357 535.325V552.442H-344.035C-346.585 552.442 -353.834 564.723 -353.178 548.248L-360.428 548.162L-364.035 561L-375 535.325V445.46V445.375ZM455.129 98.1988L459.428 62.2531L420.885 64.5211L426.932 98.2416H455.093L455.129 98.1988ZM3191.49 406.861V280.623C3191.49 279.126 3181.29 259.484 3178.85 256.959C3162.89 240.398 3125.92 250.968 3125.92 272.065V406.861H3191.49ZM805.33 445.375C805.002 382.47 808.791 317.896 792.616 257.087C776.186 308.866 781.469 370.958 779.611 425.818C789.337 429.884 792.871 428.086 794.037 442.764L805.33 445.375ZM2878.16 308.439L2677.83 368.262C2737.79 355.639 2813.64 344.513 2870.18 318.024C2875.72 315.414 2880.02 320.506 2878.16 308.396V308.439ZM2506.64 372.627C2517.17 296.114 2463.29 296.2 2473.82 372.627H2506.64ZM539.428 428.215L530.539 355.254L512.543 351.745L507.26 358.42L499.355 432.58L539.464 428.258L539.428 428.215ZM1700.45 422.737C1709.96 407.546 1703.91 368.819 1688.21 360.217C1668.5 375.666 1632.73 389.274 1639.58 423.978C1651.27 426.931 1650.21 419.699 1655.93 411.226L1668.68 423.978C1666.5 404.337 1669.48 384.352 1688.94 398.132L1690.61 428.3C1690.94 428.814 1699.79 423.85 1700.45 422.78V422.737ZM1624.97 394.024C1603.04 387.177 1604.46 446.872 1625 434.634V394.024H1624.97ZM1577.64 398.26H1559.39V436.816L1576.01 432.794L1577.61 398.303L1577.64 398.26Z" fill="#F5F5F5"/>
</svg>
