<svg width="3717" height="626" viewBox="0 0 3717 626" fill="none" xmlns="http://www.w3.org/2000/svg">
<path d="M0.5 510.375C13.6876 512.728 6.51094 484.314 8.00457 474.215C9.4982 464.116 16.8935 454.402 15.2541 442.121C17.1485 439.895 41.9208 442.249 45.746 445.672C50.4819 449.909 44.4345 460.136 51.5384 459.024V390.556H66.1468L66.1103 369.116H98.9337V420.51C108.041 423.72 119.844 417.001 127.058 417.386C132.631 417.686 136.675 424.447 144.289 425.046C165.163 426.715 189.28 415.504 200.901 437.627C194.89 409.299 221.083 400.184 219.298 433.177L244.69 433.391L245.2 410.497L250.409 403.907L284.763 407.673L288.369 424.832V227.987L324.69 240.996C317.623 261.579 328.005 262.82 328.442 265.002C329.79 272.02 327.823 280.536 328.442 287.896H343.051V411.952H357.659V429.112H372.231V358.461C387.131 342.842 409.353 357.776 426.876 356.321C420.537 380.756 437.441 383.152 440.61 402.238C443.78 421.323 442.832 440.195 448.77 459.024C463.306 446.999 444.727 407.673 454.053 390.213L468.916 386.661L470.628 364.88C475.146 370.4 499.736 371.77 499.736 362.74V281.435C499.736 280.707 504.836 277.712 505.455 273.09C506.075 268.468 502.359 261.836 503.124 256.615C503.707 252.592 516.639 249.041 519.918 240.568C522.432 234.063 518.57 227.473 519.918 223.493C524.618 209.629 548.188 215.577 558.06 219.471C545.711 244.547 566.986 243.563 571.612 254.732C572.887 257.813 575.802 284.002 576.202 290.121C579.044 332.272 574.199 378.06 576.202 420.596C581.303 420.981 587.386 419.312 592.195 421.152C599.226 423.848 595.037 437.413 605.383 433.391C602.031 299.664 618.716 167.264 620.173 33.5374C620.356 20.4857 641.703 -6.81593 652.45 1.5714L674.6 403.479L689.244 403.393L689.172 420.596L721.995 429.112V213.009C721.995 210.998 738.935 187.89 741.813 180.658C745.092 172.485 741.849 161.487 749.317 155.325C756.603 162.642 753.944 173.426 758.134 183.397C761.084 190.458 776.64 208.687 776.64 213.009V345.666L782.104 351.999L787.569 345.666V108.125H845.857V510.375C852.742 508.706 852.487 501.944 853.252 495.526C855.657 474.9 857.405 369.93 873.544 365.565L940.939 389.015L955.183 510.417H966.112V420.51L984.291 424.832L984.363 411.952C1017.44 410.54 1003.6 449.524 1006.22 476.141L1020.87 473.701C1027.9 479.692 1022.07 497.708 1025.02 501.345C1025.78 502.287 1044.44 511.787 1046.19 510.332C1054.05 503.785 1043.56 487.823 1042.76 482.303C1039.19 456.841 1051.29 457.483 1053.51 443.961C1055.95 429.197 1055.62 357.263 1053.76 341.087C1052.09 326.495 1042.29 324.099 1042.25 311.432C1042.21 293.374 1056.06 294.829 1057.26 289.137C1060.32 274.631 1053.36 254.047 1054.67 243.649C1055.18 239.755 1060.32 235.304 1060.65 229.912C1061.38 218.53 1060.47 207.19 1060.83 195.807C1060.98 190.629 1058.13 179.888 1064.44 180.915C1061.85 202.953 1066.8 226.318 1067.39 247.243C1067.68 257.428 1062.29 268.511 1064.4 281.563C1066.08 291.962 1073.11 290.464 1075.58 295.128C1085.38 313.529 1073.4 321.831 1071.58 336.894C1069.21 356.664 1069.39 424.105 1071.58 444.303C1073 457.483 1082.51 464.715 1082.47 474.044C1082.47 475.67 1070.41 513.712 1082.51 499.163C1092.85 486.668 1095.11 482.046 1111.9 487.138L1119.08 275.058H1217.44C1218.06 347.891 1229.1 420.81 1221.12 493.3L1253.91 484.742C1258.28 467.753 1242.29 473.402 1242.98 459.109C1256.68 465.571 1260.39 447.17 1263.74 446.143C1267.5 444.988 1302.25 444.988 1306 446.143C1311.14 447.726 1309.94 462.233 1319.48 459.066L1326.84 392.823L1341.3 364.966C1339.05 376.477 1350.7 381.312 1352.01 385.335C1361.19 413.193 1357.48 447.213 1363.23 476.183C1388.41 464.929 1375.22 469.08 1385.28 477.852C1391.47 483.244 1402.72 487.823 1410.52 489.064L1403.16 495.397L1405.31 506.181L1446.95 506.095L1439.7 489.021L1457.88 488.936L1450.59 476.183C1462.51 475.798 1474.16 471.99 1485.46 467.882C1491.65 465.656 1495.91 457.141 1499.63 456.499C1505.89 455.386 1606.62 455.386 1612.89 456.499C1616.61 457.141 1620.87 465.656 1627.06 467.882C1638.32 471.99 1650.01 475.755 1661.92 476.183L1654.64 488.936L1676.5 489.021L1665.6 506.053H1709.28L1705.6 489.021C1716.28 486.882 1732.78 481.746 1735.04 467.839L1751.07 476.355C1762.29 467.026 1755.91 460.821 1757.33 455.729C1760.5 444.217 1787.9 441.821 1791.8 455.729C1792.93 459.708 1785.2 499.505 1796.75 488.978C1791.58 476.569 1801.41 471.733 1811.36 471.861L1809.17 450.337C1824.51 442.976 1838.1 439.168 1838.65 416.231C1839.37 444.132 1858.61 439.253 1866.11 448.197C1872.12 455.301 1866.37 475.37 1884.15 482.688L1876.9 497.58C1882.47 498.564 1900.72 503.87 1902.58 494.798L1901.63 460.008L1844.18 412.123L1991.25 379.13L2066.33 420.596L2070.01 343.612L2095.29 347.677L2099.16 326.495L2110.23 347.849L2139.19 343.655C2137.77 373.567 2151.11 400.398 2140.36 432.578C2138.61 437.756 2132.56 437.756 2130.78 442.976C2126.11 456.756 2127.17 480.548 2139.16 489.15L2139.23 454.958L2143.05 467.411L2160.5 467.154L2166.26 428.983L2190.19 425.004L2192.05 356.578L2241.2 311.603V168.248C2247.35 169.318 2253.36 163.07 2259.3 165.938C2261.34 166.922 2292.2 197.732 2292.2 200.343V330.86C2314.53 334.455 2305.35 300.392 2306.81 281.691C2307.68 270.351 2311.25 229.442 2313.95 222.381C2315.88 217.331 2322.07 220.84 2324.04 218.786C2327.54 215.106 2326.04 194.609 2334.13 189.645C2339.96 188.018 2341.71 195.422 2343.49 200C2353.18 224.563 2365.02 251.052 2365.02 277.326V463.474L2385.24 395.22L2386.62 358.803L2398.06 354.139L2405.09 240.91H2415.99V266.628H2426.88V228.072H2437.77C2438.5 251.694 2443.16 275.315 2445.02 298.766C2447.32 327.308 2434.06 357.477 2466.48 361.285L2471.07 398.686L2488.81 399.242L2492.38 433.476L2497.92 390.556L2512.05 389.871C2521.6 387.26 2517.01 354.738 2518.76 342.5C2520.5 330.261 2528.19 318.45 2530.3 305.57C2533.18 288.11 2526.81 260.167 2529.69 238.728C2529.98 236.588 2535.66 238.342 2536.42 230.511C2538.65 207.403 2535.26 177.663 2536.13 153.185C2536.32 147.922 2533.36 137.309 2539.78 138.251V225.975L2565.28 232.394V138.251L2572.2 209.329L2568.99 236.588L2580.1 238.984C2581.6 261.579 2577.12 289.48 2580.1 311.261C2581.63 322.515 2589.07 330.475 2590.6 341.729C2592.27 354.139 2588.81 408.828 2590.85 412.08L2609.03 407.801V347.891H2656.39V450.593C2662.8 451.535 2659.85 440.922 2660.03 435.659C2660.83 412.765 2657.59 384.693 2660.21 363.083C2661.02 356.45 2666.37 351.229 2667.5 341.686C2673.18 294.23 2655.81 228.329 2682.98 186.564C2685.24 183.097 2692.64 181.899 2694.82 176.764C2697.01 171.629 2689.76 143.086 2700.03 138.208C2701.71 149.976 2697.77 167.435 2700 177.962C2700.69 181.3 2729.21 202.482 2729.21 230.169V446.271C2747.1 448.711 2736.97 398.472 2740.14 394.92H2754.71V467.668C2766.33 465.4 2760.25 439.767 2761.96 437.67H2783.86V459.109H2794.75V292.175H2816.64C2812.67 327.479 2838.83 327.479 2834.86 292.175H2856.72C2852.75 327.479 2878.9 327.479 2874.93 292.175H2896.79C2894.6 309.164 2898.68 325.297 2915 315.155L2918.39 294.016C2950.82 285.543 2937.23 307.238 2936.72 328.378C2936.32 344.297 2935.15 437.371 2940.58 441.992C2949.43 434.974 2966.95 437.542 2974.64 433.562C2979.3 431.123 2974.64 422.907 2979.34 420.425C2981.45 419.312 3001.42 415.589 3003.75 416.103C3006.37 416.659 3005.9 424.362 3008.52 424.961C3011.94 425.774 3070.34 410.497 3073.22 408.1C3076.94 404.977 3073.29 397.017 3077.77 394.749C3080.18 393.551 3099.67 389.871 3102.15 390.384C3105.28 391.026 3102.84 399.799 3109.58 399.242C3112.56 398.986 3164.8 383.495 3167.57 382.083C3172.2 379.772 3168.37 370.7 3176.21 365.65C3191.14 355.979 3197.3 368.303 3204.04 368.218C3206.34 368.218 3245.32 353.069 3247.83 351.315C3264.11 339.718 3241.38 273.604 3266.66 257.899L3268.48 274.973C3282.36 262.649 3269.72 234.491 3288.48 219.343L3290.34 240.739C3303.79 225.719 3292.27 196.791 3314.02 180.872L3319.41 206.505L3323.09 155.197H3403.24V185.194L3430.31 185.237L3432.38 155.197H3483.38V185.194H3512.57L3514.13 159.219L3567.21 155.197V185.194H3589.07V159.476H3672.82V234.363C3672.82 235.647 3677.45 237.658 3676.46 240.782H3319.45V322.087H3323.09V249.34L3681.75 249.64L3685.53 236.502L3716.5 407.673V617.356C3195.7 621.378 2674.6 612.905 2153.84 615.259C2135.11 615.345 2113.55 615.174 2093.47 615.302C2074.64 615.43 2043.93 627.755 2027.9 613.034C2024.77 625.957 2019.08 623.005 2009.47 617.698L2006.15 625.957L2002.4 612.82C1992.56 612.777 1987.32 609.696 1984.37 621.678C1962.43 600.068 1924.26 623.219 1901.27 617.655C1897.15 616.671 1897.04 607.3 1893.22 604.647C1876.5 626.556 1831.51 618.768 1805.79 617.442C1796.97 616.971 1788.12 606.401 1789.36 621.635H1782.14L1780.58 613.505C1763.53 618.126 1735.69 620.309 1718.21 617.784C1710.01 616.586 1712.45 607.428 1706.99 605.246C1701.23 602.935 1670.16 603.32 1665.46 606.872C1663.09 608.669 1662.76 615.259 1661.12 616.457C1652.85 622.491 1493 616.329 1466.73 617.185C1460.65 617.399 1455.99 618.64 1450.59 621.764L1448.7 608.755L1405.2 604.304L1401.19 617.741C1358.68 612.606 1307.72 623.518 1266.33 617.741C1253.4 615.944 1250.78 597.629 1241.27 600.367C1236.13 601.822 1239.81 621.592 1218.9 621.336L1215.58 613.162C1209.1 622.748 1199.96 622.491 1193.65 613.162C1191.03 612.007 1193.76 627.327 1184.62 621.764C1186.22 595.018 1170.41 591.081 1164.15 617.741C1150.01 622.191 1129.14 613.119 1117.44 613.034C1115.18 613.034 1116.53 625.529 1106.26 621.849C1102.94 620.651 1106.91 611.279 1100.87 613.205L1099.04 621.721L1089.94 613.162C1086.22 640.592 1079.7 600.068 1073.51 600.41L1067.97 613.119L1055.33 604.561L1053.43 617.399C1046.77 618.768 1051.43 609.696 1049.14 605.674C1048.08 603.876 1039.37 600.025 1037.41 600.624C1023.74 625.572 989.063 613.462 966.112 621.721L964.218 600.282C955.365 598.912 953.689 614.018 950.848 616.628C949.646 617.741 924.218 615.088 920.757 613.034L917.15 621.293L858.789 612.906L854.928 621.764L845.857 600.325V617.442H31.4655C28.9154 617.442 21.6658 629.723 22.3215 613.248L15.072 613.162L11.4654 626L0.5 600.325V510.46V510.375ZM830.629 163.199L834.928 127.253L796.385 129.521L802.432 163.242H830.593L830.629 163.199ZM3566.99 471.861V345.623C3566.99 344.126 3556.79 324.484 3554.35 321.959C3538.39 305.398 3501.42 315.968 3501.42 337.065V471.861H3566.99ZM1180.83 510.375C1180.5 447.47 1184.29 382.896 1168.12 322.087C1151.69 373.866 1156.97 435.958 1155.11 490.818C1164.84 494.884 1168.37 493.086 1169.54 507.764L1180.83 510.375ZM3253.66 373.439L3053.33 433.262C3113.29 420.639 3189.14 409.513 3245.68 383.024C3251.22 380.414 3255.52 385.506 3253.66 373.396V373.439ZM2882.14 437.627C2892.67 361.114 2838.79 361.2 2849.32 437.627H2882.14ZM914.928 493.215L906.039 420.254L888.043 416.745L882.76 423.42L874.855 497.58L914.964 493.258L914.928 493.215ZM2075.95 487.737C2085.46 472.546 2079.41 433.819 2063.71 425.217C2044 440.666 2008.23 454.274 2015.08 488.978C2026.77 491.931 2025.71 484.699 2031.43 476.226L2044.18 488.978C2042 469.337 2044.98 449.352 2064.44 463.132L2066.11 493.3C2066.44 493.814 2075.29 488.85 2075.95 487.78V487.737ZM2000.47 459.024C1978.54 452.177 1979.96 511.872 2000.5 499.634V459.024H2000.47ZM1953.14 463.26H1934.89V501.816L1951.51 497.794L1953.11 463.303L1953.14 463.26Z" fill="#F5F5F5"/>
</svg>
